# xmcd CD database file
# Copyright (C) 1996 Ti Kan
#
# Track frame offsets:
# 	175
# 	14590
# 	29600
# 	43227
# 	55870
# 	68102
# 	83945
# 	101210
# 	114957
# 	128857
# 	146112
# 	160737
#
# Disc length: 2316 seconds
#
# Revision: 1
# Processed by: cddbd v1.4b41PL1 Copyright (c) Steve Scherf et al.
# Submitted via: DiscPlay 3.4.1
#
DISCID=ab090a0c
DTITLE=Carroll Baker - Her Finest Collection
DYEAR=1900
DGENRE=
TTITLE0=I'm An Old Rock and Roller
TTITLE1=It's How You Make Love Good
TTITLE2=I Should Have Put A Hold On Love
TTITLE3=It's Only Make Believe
TTITLE4=Too Hot To Sleep Tonight
TTITLE5=I'm Taking Care Of Myself
TTITLE6=Cheater's Moon
TTITLE7=Right Or Wrong
TTITLE8=Death and Taxes and Me Lovin'  You
TTITLE9=One Night With You
TTITLE10=A Star In Momma's Eyes
TTITLE11=Jesus It's Me Again
EXTD=
EXTT0=
EXTT1=
EXTT2=
EXTT3=
EXTT4=
EXTT5=
EXTT6=
EXTT7=
EXTT8=
EXTT9=
EXTT10=
EXTT11=
PLAYORDER=
